<svg width="30" height="30" viewBox="0 0 30 30" fill="none" xmlns="http://www.w3.org/2000/svg">
<path d="M14.125 1.68075C14.6064 0.689749 15.3933 0.689749 15.8747 1.68075L19.0565 8.23179C19.5379 9.22232 20.8127 10.1631 21.889 10.3221L29.0031 11.3727C30.0794 11.5312 30.3226 12.2924 29.544 13.0639L24.3956 18.1634C23.6165 18.9344 23.1301 20.4568 23.3137 21.5458L24.5294 28.746C24.7127 29.835 24.0762 30.3054 23.1134 29.7914L16.7502 26.3916C15.7879 25.8776 14.2123 25.8776 13.25 26.3916L6.88677 29.7914C5.924 30.3059 5.28708 29.8355 5.47124 28.746L6.68646 21.5458C6.87061 20.4568 6.38369 18.9349 5.60462 18.1634L0.45619 13.0639C-0.322882 12.2919 -0.0791911 11.5312 0.99711 11.3727L8.11122 10.3221C9.18752 10.1631 10.4623 9.22232 10.9432 8.23179L14.125 1.68075Z" fill="url(#paint0_linear_10551_3094)"/>
<path d="M29.0177 11.2263L22.0077 10.1905C20.9472 10.0337 19.6911 9.10608 19.2167 8.12945L16.0815 1.67032C15.6072 0.693225 14.8318 0.693225 14.3574 1.67032L11.2222 8.12945C10.7483 9.10608 9.49219 10.0337 8.43164 10.1905L6.5625 10.467C10.1111 13.7234 16.3589 17.5606 25.64 16.7703L29.5507 12.8942C30.3179 12.1331 30.0782 11.3826 29.0177 11.2263Z" fill="url(#paint1_linear_10551_3094)"/>
<defs>
<linearGradient id="paint0_linear_10551_3094" x1="15.0001" y1="30.0001" x2="15.0001" y2="0.937382" gradientUnits="userSpaceOnUse">
<stop stop-color="#E6B400"/>
<stop offset="0.2047" stop-color="#E4AF00"/>
<stop offset="0.4426" stop-color="#DFA100"/>
<stop offset="0.6971" stop-color="#D68A00"/>
<stop offset="0.9616" stop-color="#CA6900"/>
<stop offset="1" stop-color="#C86400"/>
</linearGradient>
<linearGradient id="paint1_linear_10551_3094" x1="18.2813" y1="16.8748" x2="18.2813" y2="0.937384" gradientUnits="userSpaceOnUse">
<stop stop-color="#E6B400"/>
<stop offset="0.2047" stop-color="#E4AF00"/>
<stop offset="0.4426" stop-color="#DFA100"/>
<stop offset="0.6971" stop-color="#D68A00"/>
<stop offset="0.9616" stop-color="#CA6900"/>
<stop offset="1" stop-color="#C86400"/>
</linearGradient>
</defs>
</svg>
