<svg width="18" height="18" viewBox="0 0 18 18" fill="none" xmlns="http://www.w3.org/2000/svg">
<path d="M8.11418 16.6827C7.653 16.6827 7.22336 16.5461 6.86255 16.312V16.7484C6.86255 17.4385 7.42403 18 8.11418 18H15.23C15.9202 18 16.4816 17.4385 16.4816 16.7484V16.312C16.1209 16.5461 15.6912 16.6827 15.23 16.6827H8.11418Z" fill="#838588"/>
<path d="M14.1077 10.9314L14.1095 4.74391H11.3148C11.8751 5.64258 12.1995 6.70289 12.1995 7.83766C12.1995 8.97247 11.8751 10.0328 11.3148 10.9314H14.1077V10.9314Z" fill="#838588"/>
<path d="M11.6722 1.31727C11.847 1.31727 12.0115 1.24959 12.1356 1.12665L13.2307 0H10.1136L11.2087 1.12662C11.3328 1.24959 11.4973 1.31727 11.6722 1.31727Z" fill="#838588"/>
<path d="M15.2301 0C14.8969 0 14.5836 0.129305 14.3475 0.364148L12.8836 1.8701C12.56 2.19371 12.1298 2.37192 11.6721 2.37192C11.2145 2.37192 10.7842 2.19371 10.4607 1.8701L10.4554 1.86479L8.99678 0.364113C8.76067 0.129305 8.44739 0 8.11418 0C7.42403 0 6.86255 0.561481 6.86255 1.25163V1.99744C8.26746 2.12326 9.53137 2.74627 10.476 3.68926H15.1645L15.1621 11.9862H10.4761C9.53136 12.9292 8.2675 13.5521 6.86258 13.678V14.3764C6.86258 15.0666 7.42406 15.6281 8.11422 15.6281H15.2301C15.9202 15.6281 16.4817 15.0666 16.4817 14.3764V1.25163C16.4817 0.561481 15.9202 0 15.2301 0ZM15.1621 14.3108H11.6721V13.2561H15.1621V14.3108Z" fill="#838588"/>
<path d="M6.81741 7.35553L6.33528 6.52043L5.85314 7.35553L5.01801 7.83767L5.85314 8.31983L6.33528 9.15494L6.81741 8.31983L7.65254 7.83767L6.81741 7.35553Z" fill="#838588"/>
<path d="M11.1448 7.83766C11.1448 5.18565 8.98726 3.02811 6.33525 3.02811C3.68324 3.02811 1.5257 5.18569 1.5257 7.83766C1.5257 10.4896 3.68327 12.6472 6.33525 12.6472C8.98722 12.6472 11.1448 10.4897 11.1448 7.83766ZM6.33525 11.2643L5.08101 9.09193L2.90864 7.8377L5.08101 6.58347L6.33525 4.41109L7.58948 6.58347L9.76189 7.8377L7.58948 9.09193L6.33525 11.2643Z" fill="#838588"/>
</svg>
