<svg width="18" height="18" viewBox="0 0 18 18" fill="none" xmlns="http://www.w3.org/2000/svg">
<g clip-path="url(#clip0_10551_2863)">
<path d="M18.0037 12.0051H14.5705C14.5353 12.0416 14.5 12.0782 14.464 12.1142C13.9908 12.5873 13.4668 12.991 12.9047 13.3212H16.4459V14.3759H1.5614V13.3212H5.10265C4.54051 12.991 4.01654 12.5873 3.54337 12.1142C3.50737 12.0782 3.47207 12.0416 3.43685 12.0051H0.00366211V15.6932H18.0037V12.0051Z" fill="#838588"/>
<path d="M0.00366211 16.7479H18.0037V18H0.00366211V16.7479Z" fill="#838588"/>
<path d="M9.00371 10.9486C11.3644 10.9486 13.285 9.02802 13.285 6.66731C13.285 4.30661 11.3644 2.38605 9.00371 2.38605C6.643 2.38605 4.72241 4.30664 4.72241 6.66731C4.72241 9.02799 6.643 10.9486 9.00371 10.9486ZM9.0699 7.2134H9.00371C8.21656 7.2134 7.57619 6.57302 7.57619 5.78588C7.57619 5.18499 7.94958 4.66998 8.47636 4.45975V3.445H9.53105V4.45975C10.0578 4.66998 10.4312 5.18499 10.4312 5.78588H9.37654C9.37654 5.58028 9.2093 5.41304 9.00371 5.41304C8.79811 5.41304 8.63087 5.58028 8.63087 5.78588C8.63087 5.96886 8.76341 6.12148 8.93751 6.15284H9.00371C9.79085 6.15284 10.4312 6.79321 10.4312 7.58036C10.4312 8.18125 10.0578 8.69625 9.53105 8.90649V9.88967H8.47636V8.90649C7.94958 8.69625 7.57619 8.18125 7.57619 7.58036H8.63087C8.63087 7.78595 8.79811 7.95319 9.00371 7.95319C9.2093 7.95319 9.37654 7.78595 9.37654 7.58036C9.37654 7.39737 9.244 7.24475 9.0699 7.2134Z" fill="#838588"/>
<path d="M9.00368 13.3347C12.6801 13.3347 15.671 10.3437 15.671 6.66735C15.671 2.99099 12.6801 0 9.00368 0C5.32728 0 2.33636 2.99095 2.33636 6.66731C2.33636 10.3437 5.32728 13.3347 9.00368 13.3347ZM9.00368 1.33137C11.9459 1.33137 14.3397 3.72509 14.3397 6.66735C14.3397 9.60961 11.9459 12.0033 9.00368 12.0033C6.06142 12.0033 3.6677 9.60957 3.6677 6.66731C3.6677 3.72505 6.06142 1.33137 9.00368 1.33137Z" fill="#838588"/>
</g>
<defs>
<clipPath id="clip0_10551_2863">
<rect width="18" height="18" fill="white" transform="translate(0.00366211)"/>
</clipPath>
</defs>
</svg>
