<svg width="36" height="36" viewBox="0 0 36 36" fill="none" xmlns="http://www.w3.org/2000/svg">
<g clip-path="url(#clip0_10551_3540)">
<path d="M13.553 19.1604H6.19653V13.6802L14.6525 12.3506L13.553 19.1604Z" fill="#BA3F03"/>
<path d="M13.553 30.3681L17.9968 27.8516L22.4406 30.3681V35.8484H13.553V30.3681Z" fill="#BA3F03"/>
<path d="M29.7971 13.6802V19.1604H22.4406L20.6934 12.3506L29.7971 13.6802Z" fill="#BA3F03"/>
<path d="M29.797 13.6801H22.4406V30.3679H13.553V13.6801H6.19653L18.3425 0.151855L29.797 13.6801Z" fill="#E96E32"/>
<path d="M29.9476 13.6657C29.9403 13.5892 30.7663 14.5894 18.4585 0.0534399C18.3978 -0.0182932 18.2891 -0.0162415 18.2294 0.0501724C5.53892 14.1849 6.07258 13.5858 6.05837 13.6172C6.03687 13.6645 6.04454 13.3043 6.04454 19.1602C6.04454 19.2441 6.11263 19.3122 6.19652 19.3122H13.401V35.848C13.401 35.9319 13.4691 36 13.553 36H22.4407C22.5245 36 22.5926 35.9319 22.5926 35.848C22.5926 35.2159 22.5926 20.6234 22.5926 19.3122H29.7971C29.881 19.3122 29.9491 19.2441 29.9491 19.1602C29.949 13.375 29.9498 13.6893 29.9476 13.6657ZM13.4009 19.0082H6.34842V13.8319H13.4009V19.0082ZM22.2886 35.6961H13.7049V30.5197H22.2886V35.6961ZM22.4406 13.5279C22.3567 13.5279 22.2886 13.596 22.2886 13.6799V30.2158H13.7049V13.6799C13.7049 13.596 13.6368 13.5279 13.5529 13.5279H6.53718L18.3391 0.382926L29.4691 13.5279H22.4406ZM29.6451 19.0082H22.5926V13.8319H29.6451V19.0082Z" fill="white"/>
</g>
<defs>
<clipPath id="clip0_10551_3540">
<rect width="36" height="36" fill="white"/>
</clipPath>
</defs>
</svg>
